<svg xmlns="http://www.w3.org/2000/svg" data-name="Layer 1" viewBox="0 0 128 128"><circle cx="8" cy="35" r="8"/><circle cx="58" cy="104" r="8"/><circle cx="52" cy="62" r="8"/><circle cx="84" cy="82" r="8"/><circle cx="111" cy="98" r="8"/><circle cx="16" cy="91" r="8"/><circle cx="120" cy="50" r="8"/><circle cx="96" cy="24" r="8"/><path d="M93.20764 89.6828l6.60052 4.02344a12.0003 12.0003 0 0 1 2.0354-3.44421l-6.62549-4.03821A11.99707 11.99707 0 0 1 93.20764 89.6828zM109.76971 56.2403L105.22559 60.189 100.264 35.20337a11.91177 11.91177 0 0 1-3.9234.77942L101.748 63.21143 91.17194 72.40179a12.09051 12.09051 0 0 1 2.77264 2.88959l8.70093-7.56091 3.80713 19.17072a11.91626 11.91626 0 0 1 3.90527-.86859L106.123 64.7085l6.26221-5.44183A12.08378 12.08378 0 0 1 109.76971 56.2403zM68.18109 97.67926L75.981 90.90137a12.0662 12.0662 0 0 1-2.49628-3.1297l-7.9458 6.90479A12.08056 12.08056 0 0 1 68.18109 97.67926zM85.70776 30.13843l-26.326 22.42041a12.08039 12.08039 0 0 1 2.69891 2.9552L88.2962 33.18793A12.07781 12.07781 0 0 1 85.70776 30.13843zM75.1109 73.968L63.0697 66.62848a12.01133 12.01133 0 0 1-2.15143 3.37262l12.02734 7.33105A12.01744 12.01744 0 0 1 75.1109 73.968zM16.81262 43.11737L40.797 57.73682a12.001 12.001 0 0 1 2.02435-3.45026L19.00592 39.7699A12.01941 12.01941 0 0 1 16.81262 43.11737zM33.81934 74.3291L24.3468 82.39655a12.05082 12.05082 0 0 1 2.37012 3.23566l9.46179-8.058 13.175 18.12671a12.0524 12.0524 0 0 1 3.21118-2.38513L39.23242 74.97266l4.76416-4.05707a12.06564 12.06564 0 0 1-2.50006-3.12445l-4.6225 3.9364L16.39874 43.55682a12.04311 12.04311 0 0 1-3.28583 2.28363z"/></svg>